IKResults
version=1
nRows=29
nColumns=24
inDegrees=yes

Units are S.I. units (second, meters, Newtons, ...)
If the header above contains a line with 'inDegrees', this indicates whether rotational values are in degrees (yes) or radians (no).

endheader
time	pelvis_tilt	pelvis_list	pelvis_rotation	pelvis_tx	pelvis_ty	pelvis_tz	hip_flexion_r	hip_adduction_r	hip_rotation_r	knee_angle_r	ankle_angle_r	subtalar_angle_r	mtp_angle_r	hip_flexion_l	hip_adduction_l	hip_rotation_l	knee_angle_l	ankle_angle_l	subtalar_angle_l	mtp_angle_l	lumbar_extension	lumbar_bending	lumbar_rotation
3.900000	11.540678	2.118040	-181.098161	0.299685	0.665087	-1.227737	58.567231	-24.096126	-19.572437	-82.268447	30.641006	11.765925	0.000000	60.775422	-30.968415	-16.444890	-82.030167	28.624323	13.195565	0.000000	-6.711675	1.408250	4.245251
3.905000	11.578242	2.159567	-181.171583	0.300058	0.661084	-1.227776	59.154185	-24.208316	-19.398189	-83.152741	30.992373	11.792768	0.000000	61.416668	-31.183966	-16.110409	-82.895306	28.976949	13.167295	0.000000	-6.745418	1.454034	4.335413
3.910000	11.603462	2.186077	-181.235749	0.300456	0.657093	-1.227857	59.725537	-24.347373	-19.244787	-84.031110	31.342127	11.817996	0.000000	62.040155	-31.378990	-15.777792	-83.755919	29.341302	13.136770	0.000000	-6.807684	1.472945	4.397067
3.915000	11.632916	2.215726	-181.268003	0.300830	0.653111	-1.227986	60.268155	-24.490661	-19.091749	-84.877589	31.738808	11.885958	0.000000	62.678678	-31.551142	-15.419827	-84.600999	29.726049	13.155969	0.000000	-6.850028	1.492536	4.402047
3.920000	11.650400	2.232387	-181.288270	0.301201	0.649096	-1.228111	60.814209	-24.659488	-18.930574	-85.739992	32.113418	11.977108	0.000000	63.306958	-31.697618	-15.057247	-85.451153	30.116100	13.169900	0.000000	-6.899430	1.518606	4.346054
3.925000	11.687892	2.260956	-181.336414	0.301552	0.645061	-1.228240	61.382495	-24.796636	-18.767253	-86.596317	32.472379	12.084261	0.000000	63.944348	-31.874316	-14.698130	-86.314635	30.321978	12.922269	0.000000	-6.940650	1.515197	4.460567
3.930000	11.742125	2.301997	-181.385878	0.301927	0.641053	-1.228297	61.963230	-24.931659	-18.622876	-87.440491	32.814618	12.138158	0.000000	64.615906	-32.026470	-14.298268	-87.156809	30.685516	12.844861	0.000000	-6.965397	1.558512	4.503441
3.935000	11.783352	2.333776	-181.438185	0.302268	0.637003	-1.228308	62.542692	-25.078667	-18.467186	-88.296963	33.166636	12.154410	0.000000	65.273122	-32.188657	-13.931465	-88.026628	31.013603	12.770070	0.000000	-6.993279	1.590123	4.587480
3.940000	11.837376	2.362042	-181.495681	0.302563	0.632999	-1.228370	63.119686	-25.215173	-18.304160	-89.127170	33.503121	12.200049	0.000000	65.919723	-32.344772	-13.569923	-88.861099	31.332091	12.712485	0.000000	-7.016232	1.601733	4.657840
3.945000	11.871374	2.361702	-181.495730	0.302892	0.629003	-1.228414	63.676082	-25.404697	-18.121024	-89.956029	33.831640	12.271731	0.000000	66.560352	-32.433806	-13.212157	-89.664496	31.796486	12.900810	0.000000	-7.043087	1.614083	4.608846
3.950000	11.888858	2.376178	-181.513784	0.303201	0.624995	-1.228527	64.217931	-25.565012	-17.948547	-90.788678	34.169685	12.328695	0.000000	67.178150	-32.561986	-12.843639	-90.472221	32.152378	12.928736	0.000000	-7.119971	1.607543	4.674014
3.955000	11.907084	2.363858	-181.518994	0.303500	0.621037	-1.228625	64.776834	-25.748702	-17.754363	-91.623804	34.482430	12.360224	0.000000	67.782980	-32.655028	-12.499409	-91.271209	32.489499	12.907716	0.000000	-7.177237	1.581762	4.679846
3.960000	11.947553	2.388831	-181.537188	0.303804	0.617075	-1.228677	65.339069	-25.895812	-17.586048	-92.436024	34.793149	12.396287	0.000000	68.430267	-32.769232	-12.117913	-92.063255	32.811755	12.870273	0.000000	-7.218770	1.599990	4.728499
3.965000	11.953221	2.382203	-181.512191	0.304048	0.613123	-1.228696	65.862274	-26.102814	-17.402393	-93.254129	35.121690	12.449172	0.000000	69.036671	-32.840474	-11.764124	-92.871508	33.208227	12.841514	0.000000	-7.280984	1.611281	4.688589
3.970000	11.954255	2.363909	-181.518186	0.304339	0.609143	-1.228793	66.404128	-26.274479	-17.180959	-94.065844	35.452160	12.488169	0.000000	69.626340	-32.940365	-11.439802	-93.741819	33.483625	12.866592	0.000000	-7.347249	1.589655	4.709699
3.975000	11.967688	2.363109	-181.503474	0.304537	0.605262	-1.228849	66.912966	-26.458959	-17.000925	-94.842892	35.764581	12.569809	0.000000	70.209683	-33.030476	-11.117899	-94.471704	33.842916	12.892547	0.000000	-7.410537	1.572508	4.763026
3.980000	11.955108	2.365936	-181.487787	0.304729	0.601317	-1.228948	67.406360	-26.630377	-16.807939	-95.636439	36.083981	12.625182	0.000000	70.788474	-33.147081	-10.813142	-95.329439	34.200959	12.948564	0.000000	-7.507119	1.579657	4.745135
3.985000	11.903437	2.359373	-181.492774	0.304982	0.597425	-1.229037	67.887153	-26.786740	-16.596925	-96.438667	36.423592	12.603122	0.000000	71.315738	-33.269889	-10.499233	-96.139836	34.504420	12.966683	0.000000	-7.638515	1.610186	4.722360
3.990000	11.928612	2.398465	-181.520145	0.305140	0.593582	-1.229158	68.408454	-26.902229	-16.443865	-97.214924	36.671786	12.637413	0.000000	71.910908	-33.463519	-10.189833	-97.128677	34.971329	13.242596	0.000000	-7.682394	1.660545	4.780790
3.995000	11.892824	2.421558	-181.509518	0.305343	0.589721	-1.229196	68.871733	-27.061026	-16.262344	-97.991225	36.969351	12.686381	0.000000	72.456368	-33.586004	-9.858893	-97.804976	35.358535	13.321173	0.000000	-7.807931	1.685243	4.814255
4.000000	11.908146	2.412842	-181.484449	0.305560	0.585902	-1.229269	69.360930	-27.215304	-15.931068	-98.688827	37.373853	13.286577	0.000000	73.016465	-33.665399	-9.575850	-98.478248	35.610910	13.339511	0.000000	-7.882414	1.663395	4.854824
4.005000	11.876417	2.420057	-181.473410	0.305754	0.582097	-1.229433	69.817029	-27.378097	-15.830273	-99.437177	37.600025	13.091585	0.000000	73.546709	-33.785828	-9.258477	-99.189520	35.896206	13.418202	0.000000	-8.010403	1.660761	4.852911
4.010000	11.871853	2.443568	-181.482445	0.305940	0.578315	-1.229517	70.297401	-27.482338	-15.555118	-100.162046	37.915704	13.421197	0.000000	74.118589	-33.927906	-8.936417	-99.928214	36.147406	13.483835	0.000000	-8.097571	1.699786	4.896258
4.015000	11.852231	2.465612	-181.499269	0.306053	0.574603	-1.229482	70.768247	-27.630298	-15.397432	-100.902488	38.155879	13.421138	0.000000	74.663808	-34.076734	-8.629893	-100.655497	36.401290	13.550100	0.000000	-8.195418	1.742260	4.954727
4.020000	11.849758	2.501198	-181.520770	0.306204	0.570839	-1.229541	71.276258	-27.762415	-15.339237	-101.683089	38.251355	13.010672	0.000000	75.262712	-34.233683	-8.270437	-101.400801	36.654248	13.669037	0.000000	-8.281585	1.765738	5.066065
4.025000	11.816629	2.512381	-181.538820	0.306378	0.567135	-1.229680	71.729798	-27.858330	-15.084644	-102.380362	38.540230	13.185098	0.000000	75.787701	-34.382316	-7.963667	-102.106528	36.913634	13.774608	0.000000	-8.389876	1.821968	5.057900
4.030000	11.770494	2.508772	-181.531050	0.306478	0.563493	-1.229755	72.172905	-28.021609	-14.934829	-103.114225	38.741166	13.081000	0.000000	76.249807	-34.494524	-7.713497	-102.775931	37.214413	13.800838	0.000000	-8.516069	1.831122	5.094322
4.035000	11.825584	2.530259	-181.531489	0.306620	0.559760	-1.229810	72.682312	-28.108384	-14.549352	-103.740699	39.169996	13.851447	0.000000	76.874445	-34.620429	-7.393519	-103.457184	37.441016	13.971179	0.000000	-8.526157	1.822878	5.228360
4.040000	11.802509	2.543539	-181.545399	0.306731	0.556125	-1.229900	73.189485	-28.238130	-14.530270	-104.513374	39.133845	13.063037	0.000000	77.404704	-34.770272	-7.094206	-104.146825	37.646432	14.045664	0.000000	-8.617647	1.877837	5.214122
